<?xml version="1.0" encoding="UTF-8" standalone="no"?>
<!-- Created with Inkscape (http://www.inkscape.org/) -->

<svg
   xmlns:dc="http://purl.org/dc/elements/1.1/"
   xmlns:cc="http://creativecommons.org/ns#"
   xmlns:rdf="http://www.w3.org/1999/02/22-rdf-syntax-ns#"
   xmlns:svg="http://www.w3.org/2000/svg"
   xmlns="http://www.w3.org/2000/svg"
   xmlns:sodipodi="http://sodipodi.sourceforge.net/DTD/sodipodi-0.dtd"
   xmlns:inkscape="http://www.inkscape.org/namespaces/inkscape"
   width="17mm"
   height="17mm"
   viewBox="0 0 17 17"
   version="1.1"
   id="svg8"
   sodipodi:docname="person.svg"
   inkscape:version="0.92.1 unknown">
  <defs
     id="defs2">
    <filter
       id="filter1171"
       inkscape:label="Drop Shadow"
       style="color-interpolation-filters:sRGB">
      <feFlood
         id="feFlood1161"
         result="flood"
         flood-color="rgb(0,0,0)"
         flood-opacity="0.498039" />
      <feComposite
         id="feComposite1163"
         result="composite1"
         operator="in"
         in2="SourceGraphic"
         in="flood" />
      <feGaussianBlur
         id="feGaussianBlur1165"
         result="blur"
         stdDeviation="16.3"
         in="composite1" />
      <feOffset
         id="feOffset1167"
         result="offset"
         dy="0"
         dx="-0" />
      <feComposite
         id="feComposite1169"
         result="composite2"
         operator="over"
         in2="offset"
         in="SourceGraphic" />
    </filter>
    <filter
       id="filter1231"
       inkscape:label="Drop Shadow"
       style="color-interpolation-filters:sRGB">
      <feFlood
         id="feFlood1221"
         result="flood"
         flood-color="rgb(0,0,0)"
         flood-opacity="0.498039" />
      <feComposite
         id="feComposite1223"
         result="composite1"
         operator="in"
         in2="SourceGraphic"
         in="flood" />
      <feGaussianBlur
         id="feGaussianBlur1225"
         result="blur"
         stdDeviation="16.3"
         in="composite1" />
      <feOffset
         id="feOffset1227"
         result="offset"
         dy="0"
         dx="0" />
      <feComposite
         id="feComposite1229"
         result="composite2"
         operator="over"
         in2="offset"
         in="SourceGraphic" />
    </filter>
    <filter
       id="filter1411"
       inkscape:label="Drop Shadow"
       style="color-interpolation-filters:sRGB">
      <feFlood
         id="feFlood1401"
         result="flood"
         flood-color="rgb(0,0,0)"
         flood-opacity="0.498039" />
      <feComposite
         id="feComposite1403"
         result="composite1"
         operator="out"
         in2="SourceGraphic"
         in="flood" />
      <feGaussianBlur
         id="feGaussianBlur1405"
         result="blur"
         stdDeviation="102.105"
         in="composite1" />
      <feOffset
         id="feOffset1407"
         result="offset"
         dy="0"
         dx="0" />
      <feComposite
         id="feComposite1409"
         result="composite2"
         operator="atop"
         in2="SourceGraphic"
         in="offset" />
    </filter>
    <filter
       id="filter1171-2"
       inkscape:label="Drop Shadow"
       style="color-interpolation-filters:sRGB">
      <feFlood
         id="feFlood1161-9"
         result="flood"
         flood-color="rgb(0,0,0)"
         flood-opacity="0.498039" />
      <feComposite
         id="feComposite1163-1"
         result="composite1"
         operator="in"
         in2="SourceGraphic"
         in="flood" />
      <feGaussianBlur
         id="feGaussianBlur1165-2"
         result="blur"
         stdDeviation="16.3"
         in="composite1" />
      <feOffset
         id="feOffset1167-7"
         result="offset"
         dy="0"
         dx="-0" />
      <feComposite
         id="feComposite1169-0"
         result="composite2"
         operator="over"
         in2="offset"
         in="SourceGraphic" />
    </filter>
    <filter
       id="filter1231-9"
       inkscape:label="Drop Shadow"
       style="color-interpolation-filters:sRGB">
      <feFlood
         id="feFlood1221-3"
         result="flood"
         flood-color="rgb(0,0,0)"
         flood-opacity="0.498039" />
      <feComposite
         id="feComposite1223-6"
         result="composite1"
         operator="in"
         in2="SourceGraphic"
         in="flood" />
      <feGaussianBlur
         id="feGaussianBlur1225-0"
         result="blur"
         stdDeviation="16.3"
         in="composite1" />
      <feOffset
         id="feOffset1227-6"
         result="offset"
         dy="0"
         dx="0" />
      <feComposite
         id="feComposite1229-2"
         result="composite2"
         operator="over"
         in2="offset"
         in="SourceGraphic" />
    </filter>
    <filter
       id="filter1411-6"
       inkscape:label="Drop Shadow"
       style="color-interpolation-filters:sRGB">
      <feFlood
         id="feFlood1401-1"
         result="flood"
         flood-color="rgb(0,0,0)"
         flood-opacity="0.498039" />
      <feComposite
         id="feComposite1403-8"
         result="composite1"
         operator="out"
         in2="SourceGraphic"
         in="flood" />
      <feGaussianBlur
         id="feGaussianBlur1405-7"
         result="blur"
         stdDeviation="102.105"
         in="composite1" />
      <feOffset
         id="feOffset1407-9"
         result="offset"
         dy="0"
         dx="0" />
      <feComposite
         id="feComposite1409-2"
         result="composite2"
         operator="atop"
         in2="SourceGraphic"
         in="offset" />
    </filter>
  </defs>
  <sodipodi:namedview
     id="base"
     pagecolor="#ffffff"
     bordercolor="#666666"
     borderopacity="1.0"
     inkscape:pageopacity="0.0"
     inkscape:pageshadow="2"
     inkscape:zoom="1.4142136"
     inkscape:cx="102.70374"
     inkscape:cy="-40.374212"
     inkscape:document-units="mm"
     inkscape:current-layer="layer1"
     showgrid="false"
     inkscape:snap-bbox="true"
     inkscape:bbox-nodes="true"
     inkscape:bbox-paths="true"
     inkscape:snap-bbox-edge-midpoints="true"
     inkscape:snap-bbox-midpoints="true"
     inkscape:window-width="1366"
     inkscape:window-height="705"
     inkscape:window-x="1440"
     inkscape:window-y="435"
     inkscape:window-maximized="1"
     fit-margin-top="0"
     fit-margin-left="0"
     fit-margin-right="0"
     fit-margin-bottom="0" />
  <metadata
     id="metadata5">
    <rdf:RDF>
      <cc:Work
         rdf:about="">
        <dc:format>image/svg+xml</dc:format>
        <dc:type
           rdf:resource="http://purl.org/dc/dcmitype/StillImage" />
        <dc:title></dc:title>
      </cc:Work>
    </rdf:RDF>
  </metadata>
  <g
     inkscape:label="Layer 1"
     inkscape:groupmode="layer"
     id="layer1"
     transform="translate(-62.788065,-128.77689)">
    <g
       id="g4490"
       transform="matrix(0.03334423,0,0,0.03334423,63.237088,129.22593)"
       style="stroke-width:7.93490696;fill:#ffffff">
      <g
         id="g4432"
         style="stroke-width:7.93490696;fill:#ffffff">
        <g
           id="g4430"
           style="stroke-width:7.93490696;fill:#ffffff">
          <path
             id="path4426"
             d="m 239.7,260.2 c 0.5,0 1,0 1.6,0 0.2,0 0.4,0 0.6,0 0.3,0 0.7,0 1,0 29.3,-0.5 53,-10.8 70.5,-30.5 38.5,-43.4 32.1,-117.8 31.4,-124.9 C 342.3,51.5 317.1,26 296.3,14.1 280.8,5.2 262.7,0.4 242.5,0 h -0.7 c -0.1,0 -0.3,0 -0.4,0 h -0.6 c -11.1,0 -32.9,1.8 -53.8,13.7 -21,11.9 -46.6,37.4 -49.1,91.1 -0.7,7.1 -7.1,81.5 31.4,124.9 17.4,19.7 41.1,30 70.4,30.5 z M 164.6,107.3 c 0,-0.3 0.1,-0.6 0.1,-0.8 3.3,-71.7 54.2,-79.4 76,-79.4 h 0.4 c 0.2,0 0.5,0 0.8,0 27,0.6 72.9,11.6 76,79.4 0,0.3 0,0.6 0.1,0.8 0.1,0.7 7.1,68.7 -24.7,104.5 -12.6,14.2 -29.4,21.2 -51.5,21.4 -0.2,0 -0.3,0 -0.5,0 v 0 c -0.2,0 -0.3,0 -0.5,0 -22,-0.2 -38.9,-7.2 -51.4,-21.4 -31.7,-35.6 -24.9,-103.9 -24.8,-104.5 z"
             inkscape:connector-curvature="0"
             style="stroke-width:7.93490696;fill:#ffffff" />
          <path
             id="path4428"
             d="m 446.8,383.6 c 0,-0.1 0,-0.2 0,-0.3 0,-0.8 -0.1,-1.6 -0.1,-2.5 -0.6,-19.8 -1.9,-66.1 -45.3,-80.9 -0.3,-0.1 -0.7,-0.2 -1,-0.3 -45.1,-11.5 -82.6,-37.5 -83,-37.8 -6.1,-4.3 -14.5,-2.8 -18.8,3.3 -4.3,6.1 -2.8,14.5 3.3,18.8 1.7,1.2 41.5,28.9 91.3,41.7 23.3,8.3 25.9,33.2 26.6,56 0,0.9 0,1.7 0.1,2.5 0.1,9 -0.5,22.9 -2.1,30.9 -16.2,9.2 -79.7,41 -176.3,41 C 145.3,456 81.4,424.1 65.1,414.9 63.5,406.9 62.8,393 63,384 c 0,-0.8 0.1,-1.6 0.1,-2.5 0.7,-22.8 3.3,-47.7 26.6,-56 49.8,-12.8 89.6,-40.6 91.3,-41.7 6.1,-4.3 7.6,-12.7 3.3,-18.8 -4.3,-6.1 -12.7,-7.6 -18.8,-3.3 -0.4,0.3 -37.7,26.3 -83,37.8 -0.4,0.1 -0.7,0.2 -1,0.3 -43.4,14.9 -44.7,61.2 -45.3,80.9 0,0.9 0,1.7 -0.1,2.5 0,0.1 0,0.2 0,0.3 -0.1,5.2 -0.2,31.9 5.1,45.3 1,2.6 2.8,4.8 5.2,6.3 3,2 74.9,47.8 195.2,47.8 120.3,0 192.2,-45.9 195.2,-47.8 2.3,-1.5 4.2,-3.7 5.2,-6.3 5,-13.3 4.9,-40 4.8,-45.2 z"
             inkscape:connector-curvature="0"
             style="stroke-width:7.93490696;fill:#ffffff" />
        </g>
      </g>
      <g
         id="g4434"
         style="stroke-width:7.93490696;fill:#ffffff" />
      <g
         id="g4436"
         style="stroke-width:7.93490696;fill:#ffffff" />
      <g
         id="g4438"
         style="stroke-width:7.93490696;fill:#ffffff" />
      <g
         id="g4440"
         style="stroke-width:7.93490696;fill:#ffffff" />
      <g
         id="g4442"
         style="stroke-width:7.93490696;fill:#ffffff" />
      <g
         id="g4444"
         style="stroke-width:7.93490696;fill:#ffffff" />
      <g
         id="g4446"
         style="stroke-width:7.93490696;fill:#ffffff" />
      <g
         id="g4448"
         style="stroke-width:7.93490696;fill:#ffffff" />
      <g
         id="g4450"
         style="stroke-width:7.93490696;fill:#ffffff" />
      <g
         id="g4452"
         style="stroke-width:7.93490696;fill:#ffffff" />
      <g
         id="g4454"
         style="stroke-width:7.93490696;fill:#ffffff" />
      <g
         id="g4456"
         style="stroke-width:7.93490696;fill:#ffffff" />
      <g
         id="g4458"
         style="stroke-width:7.93490696;fill:#ffffff" />
      <g
         id="g4460"
         style="stroke-width:7.93490696;fill:#ffffff" />
      <g
         id="g4462"
         style="stroke-width:7.93490696;fill:#ffffff" />
    </g>
  </g>
</svg>
